<?xml version="1.0" standalone="no"?>
<!DOCTYPE svg PUBLIC "-//W3C//DTD SVG 20010904//EN"
 "http://www.w3.org/TR/2001/REC-SVG-20010904/DTD/svg10.dtd">
<svg version="1.0" xmlns="http://www.w3.org/2000/svg"
 width="538.000000pt" height="80.000000pt" viewBox="0 0 538.000000 80.000000"
 preserveAspectRatio="xMidYMid meet">

<g transform="translate(0.000000,80.000000) scale(0.100000,-0.100000)"
fill="#000000" stroke="none">
<path d="M295 787 c-114 -38 -200 -113 -249 -217 -29 -60 -31 -73 -31 -170 0
-99 2 -109 33 -170 17 -36 43 -77 56 -92 120 -134 312 -174 473 -99 49 23 90
55 159 123 l93 91 94 -89 c86 -83 190 -154 204 -140 4 3 1 6 -5 6 -9 0 -12 33
-12 111 0 85 3 109 13 103 6 -4 -24 30 -68 75 l-80 81 80 81 c86 87 138 118
198 119 40 0 101 -21 127 -45 14 -13 24 -6 89 59 l72 73 -36 27 c-131 100
-312 112 -452 30 -26 -15 -87 -65 -135 -112 l-88 -85 -103 100 c-83 80 -114
104 -162 123 -73 28 -210 36 -270 17z m203 -211 c15 -8 63 -51 107 -96 l80
-81 -90 -88 c-66 -65 -101 -92 -132 -101 -132 -40 -264 69 -250 206 9 87 59
147 145 175 35 11 105 3 140 -15z"/>
</g>
</svg>
